<svg width="105" height="26" viewBox="0 0 105 26" fill="none" xmlns="http://www.w3.org/2000/svg">
<path d="M0.413729 18.3589C0.0131642 17.6864 0.28979 16.815 1.00488 16.4968L7.33836 13.6778C7.72118 13.5074 8.1625 13.531 8.52498 13.7412L12.144 15.8401C12.5046 16.0492 12.7437 16.4178 12.7877 16.8322L13.5267 23.7916C13.6091 24.5676 12.9972 25.2423 12.2168 25.2359L9.28918 25.2118C8.5013 25.2053 7.89839 24.5081 8.00569 23.7275L8.59113 19.4685C8.63915 19.1191 8.47068 18.7755 8.16508 18.5995C7.85908 18.4233 7.47675 18.4504 7.19864 18.668L3.86447 21.2766C3.24462 21.7615 2.33985 21.5924 1.93709 20.9162L0.413729 18.3589Z" fill="white"/>
<path fill-rule="evenodd" clip-rule="evenodd" d="M14.1675 15.6496L19.7643 19.7665C20.0812 19.9996 20.5307 19.9018 20.7221 19.5581L22.1725 16.9526C22.3635 16.6095 22.2107 16.1766 21.8467 16.0294L17.8812 14.4251C17.3069 14.1928 16.931 13.6353 16.931 13.0158C16.931 12.4002 17.3022 11.8453 17.8712 11.6105L21.8506 9.96777C22.2128 9.81824 22.3628 9.38563 22.1708 9.04399L20.7256 6.47219C20.5334 6.13015 20.0852 6.03353 19.7691 6.266L14.1675 10.3864C14.0001 10.5094 13.9013 10.7048 13.9013 10.9125V15.1234C13.9013 15.3312 14.0001 15.5265 14.1675 15.6496ZM13.7804 16.1758C13.4457 15.9296 13.2481 15.5389 13.2481 15.1234V10.9125C13.2481 10.4971 13.4457 10.1064 13.7804 9.86017L19.3821 5.73982C20.0142 5.27486 20.9106 5.46812 21.2951 6.1522L22.7402 8.724C23.1242 9.40727 22.8243 10.2725 22.0998 10.5716L18.1205 12.2142C17.7959 12.3482 17.5842 12.6647 17.5842 13.0158C17.5842 13.3691 17.7986 13.6871 18.1261 13.8196L22.0917 15.4238C22.8197 15.7184 23.1252 16.5841 22.7432 17.2703L21.2928 19.8758C20.9101 20.5632 20.011 20.7589 19.3772 20.2927L13.7804 16.1758Z" fill="#2DEBFC"/>
<path d="M12.1441 10.1478C12.5047 9.93872 12.7438 9.57012 12.7878 9.15565L13.5255 2.20842C13.6083 1.42808 12.9894 0.751295 12.2048 0.764252L9.27676 0.812604C8.4933 0.825542 7.89739 1.52047 8.00409 2.29674L8.59101 6.56652C8.63916 6.9168 8.4702 7.26131 8.16376 7.43769C7.85833 7.61349 7.47695 7.58734 7.19838 7.37149L3.81845 4.75265C3.19711 4.27122 2.29439 4.44352 1.89404 5.11995L0.408119 7.6306C0.0102085 8.30291 0.287421 9.17185 1.00116 9.48952L7.33845 12.3101C7.72127 12.4805 8.16258 12.4569 8.52506 12.2467L12.1441 10.1478Z" fill="#2C85FC"/>
<path d="M43.0726 11.9063V20.4087H46.2361V9.57329H41.629V11.9063H43.0726Z" fill="white"/>
<path d="M42.9735 8.05083C43.2635 8.35395 43.7051 8.50553 44.2982 8.50553C44.8917 8.50553 45.3264 8.35395 45.603 8.05083C45.8933 7.73436 46.038 7.33891 46.038 6.86449C46.038 6.37671 45.8933 5.98122 45.603 5.67814C45.3264 5.36179 44.8917 5.20355 44.2982 5.20355C43.7051 5.20355 43.2635 5.36179 42.9735 5.67814C42.6969 5.98122 42.5584 6.37671 42.5584 6.86449C42.5584 7.33891 42.6969 7.73436 42.9735 8.05083Z" fill="white"/>
<path d="M67.6699 20.358C67.96 20.6612 68.4015 20.8127 68.9946 20.8127C69.5881 20.8127 70.0228 20.6612 70.2994 20.358C70.5897 20.0416 70.7344 19.6461 70.7344 19.1717C70.7344 18.6839 70.5897 18.2884 70.2994 17.9853C70.0228 17.669 69.5881 17.5108 68.9946 17.5108C68.4015 17.5108 67.96 17.669 67.6699 17.9853C67.3933 18.2884 67.2548 18.6839 67.2548 19.1717C67.2548 19.6461 67.3933 20.0416 67.6699 20.358Z" fill="white"/>
<path d="M32.0596 20.1712C32.9558 20.5798 34.0564 20.7842 35.3612 20.7842C36.5872 20.7842 37.6415 20.5932 38.525 20.2107C39.4081 19.8286 40.0868 19.2946 40.5613 18.6094C41.0493 17.9105 41.2929 17.0998 41.2929 16.1771C41.2929 15.2809 41.0627 14.5229 40.6012 13.9033C40.1528 13.2706 39.527 12.7763 38.7226 12.4205C37.9185 12.0513 36.9893 11.8206 35.9347 11.7285L34.8275 11.6296C34.1684 11.5767 33.6939 11.3989 33.4039 11.0956C33.1138 10.7925 32.9688 10.4366 32.9688 10.0281C32.9688 9.71154 33.0482 9.42165 33.2059 9.15802C33.3643 8.88116 33.6015 8.66371 33.9179 8.50547C34.2475 8.34736 34.6495 8.26826 35.1241 8.26826C35.6248 8.26826 36.0402 8.36042 36.3697 8.54509C36.4422 8.58411 36.5111 8.62582 36.5758 8.67008L36.5915 8.68105C36.6157 8.69777 36.6395 8.71512 36.6627 8.73262C36.8629 8.88563 37.0223 9.06696 37.1408 9.27661C37.312 9.5667 37.3982 9.88954 37.3982 10.2455H40.5613C40.5613 9.29637 40.3438 8.47252 39.9091 7.77395C39.4741 7.06215 38.848 6.51513 38.0308 6.13274C37.2264 5.73729 36.2577 5.53957 35.1241 5.53957C34.043 5.53957 33.1073 5.72423 32.3163 6.09326C31.5256 6.44922 30.906 6.96329 30.4579 7.63544C30.0226 8.30775 29.805 9.10534 29.805 10.0281C29.805 11.3066 30.2339 12.3347 31.0905 13.1125C31.9472 13.8903 33.0942 14.3384 34.531 14.457L35.6185 14.5559C36.5014 14.635 37.1408 14.813 37.5364 15.0897C37.9315 15.3533 38.1295 15.7158 38.1295 16.1771C38.1295 16.3892 38.0948 16.588 38.0253 16.7738C37.9737 16.9117 37.9031 17.0423 37.8133 17.1658C37.602 17.4428 37.2924 17.66 36.8838 17.8184C36.4752 17.9764 35.9677 18.0555 35.3612 18.0555C34.689 18.0555 34.142 17.9634 33.7203 17.7788C33.2984 17.5809 32.9822 17.3239 32.7709 17.0077C32.5733 16.6912 32.4747 16.3486 32.4747 15.9794H29.3308C29.3308 16.9153 29.5614 17.7458 30.0226 18.4709C30.484 19.1826 31.163 19.7496 32.0596 20.1712Z" fill="white"/>
<path d="M74.8828 20.1712C75.7789 20.5798 76.8796 20.7842 78.1844 20.7842C79.4104 20.7842 80.4647 20.5932 81.3482 20.2107C82.2313 19.8286 82.91 19.2946 83.3845 18.6094C83.8725 17.9105 84.1161 17.0998 84.1161 16.1771C84.1161 15.2809 83.8859 14.5229 83.4244 13.9033C82.9759 13.2706 82.3502 12.7763 81.5458 12.4205C80.7417 12.0513 79.8125 11.8206 78.7579 11.7285L77.6507 11.6296C76.9916 11.5767 76.5171 11.3989 76.227 11.0956C75.937 10.7925 75.792 10.4366 75.792 10.0281C75.792 9.71154 75.8714 9.42165 76.0291 9.15802C76.1875 8.88116 76.4246 8.66371 76.7411 8.50547C77.0707 8.34736 77.4727 8.26826 77.9473 8.26826C78.4479 8.26826 78.8634 8.36042 79.1929 8.54509C79.2654 8.58411 79.3343 8.62582 79.399 8.67008L79.4147 8.68105C79.4388 8.69777 79.4627 8.71512 79.4859 8.73262C79.6861 8.88563 79.8455 9.06696 79.964 9.27661C80.1352 9.5667 80.2214 9.88954 80.2214 10.2455H83.3845C83.3845 9.29637 83.167 8.47252 82.7323 7.77395C82.2973 7.06215 81.6712 6.51513 80.854 6.13274C80.0496 5.73729 79.0809 5.53957 77.9473 5.53957C76.8662 5.53957 75.9305 5.72423 75.1395 6.09326C74.3488 6.44922 73.7292 6.96329 73.2811 7.63544C72.8457 8.30775 72.6282 9.10534 72.6282 10.0281C72.6282 11.3066 73.057 12.3347 73.9137 13.1125C74.7704 13.8903 75.9174 14.3384 77.3541 14.457L78.4417 14.5559C79.3245 14.635 79.964 14.813 80.3595 15.0897C80.7547 15.3533 80.9526 15.7158 80.9526 16.1771C80.9526 16.3892 80.918 16.588 80.8485 16.7738C80.7969 16.9117 80.7263 17.0423 80.6365 17.1658C80.4252 17.4428 80.1156 17.66 79.707 17.8184C79.2984 17.9764 78.7909 18.0555 78.1844 18.0555C77.5122 18.0555 76.9652 17.9634 76.5435 17.7788C76.1216 17.5809 75.8054 17.3239 75.5941 17.0077C75.3965 16.6912 75.2979 16.3486 75.2979 15.9794H72.154C72.154 16.9153 72.3846 17.7458 72.8457 18.4709C73.3072 19.1826 73.9862 19.7496 74.8828 20.1712Z" fill="white"/>
<path d="M53.2947 20.5468C52.2006 20.5468 51.3175 20.4152 50.6453 20.1513C49.9728 19.8746 49.4787 19.42 49.1622 18.7874C48.8591 18.1414 48.7076 17.2713 48.7076 16.1771V11.8865H47.0664V9.57323H48.7076V6.64694H51.6535V9.57323H54.8173V11.8865H51.6535V16.2959C51.6535 16.81 51.7855 17.2053 52.049 17.482C52.3257 17.7458 52.7147 17.8775 53.2157 17.8775H54.8173V20.5468H53.2947Z" fill="white"/>
<path d="M102.551 20.5468C101.457 20.5468 100.573 20.4152 99.9013 20.1513C99.2289 19.8746 98.7347 19.42 98.4182 18.7874C98.1152 18.1414 97.9636 17.2713 97.9636 16.1771V11.8865H96.3224V9.57323H97.9636V6.64694H100.91V9.57323H104.073V11.8865H100.91V16.2959C100.91 16.81 101.042 17.2053 101.305 17.482C101.582 17.7458 101.971 17.8775 102.472 17.8775H104.073V20.5468H102.551Z" fill="white"/>
<path fill-rule="evenodd" clip-rule="evenodd" d="M58.6261 20.3097C59.3378 20.6262 60.1553 20.7843 61.0779 20.7843C61.9872 20.7843 62.7916 20.6262 63.4902 20.3097C64.1888 19.9933 64.7689 19.5517 65.23 18.985C65.6915 18.4181 66.0015 17.7724 66.1592 17.0473H63.2528C63.1212 17.3769 62.8707 17.6535 62.5016 17.8775C62.1325 18.1019 61.6577 18.2139 61.0779 18.2139C60.7187 18.2139 60.3976 18.1715 60.1148 18.0862C59.8996 18.0216 59.7065 17.9324 59.5357 17.8184C59.1402 17.5549 58.8502 17.1855 58.6657 16.7112C58.6144 16.576 58.5706 16.4346 58.5337 16.2874C58.4962 16.1382 58.4658 15.983 58.4429 15.8214H66.3571V14.7537C66.3571 13.765 66.1461 12.8555 65.7245 12.0251C65.3025 11.1813 64.6895 10.5025 63.8857 9.98847C63.0947 9.4612 62.1191 9.19757 60.9591 9.19757C60.0759 9.19757 59.2849 9.35581 58.5863 9.67215C57.9014 9.97524 57.3279 10.3905 56.8664 10.9177C56.4052 11.445 56.0492 12.0449 55.7984 12.7172C55.5613 13.3761 55.4427 14.0681 55.4427 14.7931V15.1886C55.4427 15.8873 55.5613 16.5727 55.7984 17.2449C56.0492 17.904 56.4052 18.5036 56.8664 19.0442C57.341 19.5716 57.9272 19.9933 58.6261 20.3097ZM58.4975 13.8663C58.5063 13.8244 58.5154 13.7832 58.5255 13.7426C58.553 13.6308 58.5847 13.5237 58.6206 13.4213C58.6408 13.363 58.6624 13.3062 58.6856 13.251C58.8832 12.7632 59.1732 12.3942 59.5553 12.1437C59.6984 12.0501 59.8532 11.974 60.0194 11.9154C60.299 11.8172 60.6125 11.768 60.9591 11.768C61.4999 11.768 61.9477 11.8933 62.3037 12.1437C62.6727 12.3809 62.9497 12.7302 63.1342 13.1916C63.1492 13.2288 63.1633 13.2667 63.177 13.3051C63.1989 13.3662 63.2191 13.429 63.2381 13.4933C63.2658 13.5889 63.2903 13.688 63.3119 13.7903C63.3276 13.8658 63.341 13.943 63.353 14.0221H58.4671C58.4762 13.9693 58.4864 13.9174 58.4975 13.8663Z" fill="white"/>
<path fill-rule="evenodd" clip-rule="evenodd" d="M88.0747 20.3097C88.7864 20.6262 89.6039 20.7843 90.5265 20.7843C91.4358 20.7843 92.2402 20.6262 92.9388 20.3097C93.6374 19.9933 94.2175 19.5517 94.6786 18.985C95.1401 18.4181 95.4501 17.7724 95.6078 17.0473H92.7014C92.5698 17.3769 92.3193 17.6535 91.9502 17.8775C91.5811 18.1019 91.1063 18.2139 90.5265 18.2139C90.1673 18.2139 89.8462 18.1715 89.5634 18.0862C89.3482 18.0216 89.1551 17.9324 88.9843 17.8184C88.5888 17.5549 88.2988 17.1855 88.1143 16.7112C88.063 16.576 88.0192 16.4346 87.9823 16.2874C87.9448 16.1382 87.9144 15.983 87.8915 15.8214H95.8057V14.7537C95.8057 13.765 95.5947 12.8555 95.1731 12.0251C94.7511 11.1813 94.1381 10.5025 93.3343 9.98847C92.5433 9.4612 91.5678 9.19757 90.4077 9.19757C89.5245 9.19757 88.7335 9.35581 88.0349 9.67215C87.35 9.97524 86.7765 10.3905 86.315 10.9177C85.8539 11.445 85.4979 12.0449 85.247 12.7172C85.0099 13.3761 84.8914 14.0681 84.8914 14.7931V15.1886C84.8914 15.8873 85.0099 16.5727 85.247 17.2449C85.4979 17.904 85.8539 18.5036 86.315 19.0442C86.7896 19.5716 87.3758 19.9933 88.0747 20.3097ZM87.9461 13.8663C87.9549 13.8244 87.964 13.7832 87.9742 13.7426C88.0016 13.6308 88.0333 13.5237 88.0692 13.4213C88.0894 13.363 88.111 13.3062 88.1342 13.251C88.3318 12.7632 88.6218 12.3942 89.0039 12.1437C89.147 12.0501 89.3018 11.974 89.468 11.9154C89.7476 11.8172 90.0611 11.768 90.4077 11.768C90.9485 11.768 91.3963 11.8933 91.7523 12.1437C92.1213 12.3809 92.3983 12.7302 92.5828 13.1916C92.5979 13.2288 92.6119 13.2667 92.6256 13.3051C92.6475 13.3662 92.6677 13.429 92.6867 13.4933C92.7145 13.5889 92.7389 13.688 92.7605 13.7903C92.7762 13.8658 92.7896 13.943 92.8017 14.0221H87.9157C87.9248 13.9693 87.935 13.9174 87.9461 13.8663Z" fill="white"/>
</svg>
